<svg xmlns="http://www.w3.org/2000/svg" version="1.1" viewBox="-5.0 -10.0 110.0 135.0" fill="#FFF">
 <path d="m26.133 83.055c0.97266 0 1.918-0.34766 2.6562-0.98047 0.83203-0.71094 1.3359-1.7031 1.4219-2.793 0.085937-1.0898-0.25781-2.1484-0.96875-2.9805-2.832-3.3164-4.332-7.2031-4.5234-11.586 2.0352 3.1602 4.7109 5.875 7.8438 7.9492v14.555h-2.5469c-0.53125 0-0.98828 0.375-1.0898 0.89844l-1.1094 5.7031c-0.0625 0.32422 0.023438 0.66406 0.23438 0.91797 0.21094 0.25781 0.52344 0.40625 0.85547 0.40625h16.34c0.61328 0 1.1094-0.49609 1.1094-1.1094v-16.906c0.37109 0.015625 0.74219 0.027344 1.1133 0.027344 0.375 0 0.74219-0.011719 1.1133-0.027344v16.902c0 0.61328 0.49609 1.1094 1.1094 1.1094h16.34c0.33203 0 0.64844-0.14844 0.85547-0.40625 0.21094-0.25781 0.29688-0.59375 0.23438-0.91797l-1.1094-5.7031c-0.10156-0.52344-0.55859-0.89844-1.0898-0.89844h-2.5469v-14.551c3.1328-2.0781 5.8047-4.7891 7.8438-7.9492-0.1875 4.3828-1.6914 8.2695-4.5234 11.586-0.71094 0.83203-1.0547 1.8906-0.96875 2.9805 0.085938 1.0898 0.58984 2.082 1.4219 2.793 0.74219 0.63281 1.6836 0.98047 2.6602 0.98047 1.2031 0 2.3359-0.52344 3.1133-1.4375 11.453-13.414 4.8281-29.691 2.4023-34.574-0.26953-2.375-0.83594-4.7031-1.7305-6.9453-0.16797-0.42188-0.57812-0.69922-1.0312-0.69922h-11.492v-9.1641h14.766c2.0078 0 3.7148-1.9531 4.5625-5.1172 2.5078-0.96875 4.0781-2.5117 4.0781-4.3203s-1.5703-3.3477-4.0781-4.3203c-0.84766-3.1641-2.5547-5.1172-4.5625-5.1172h-16.344c-2.2031-3.9727-6.4531-6.5039-11.023-6.5039-6.9492 0-12.602 5.6523-12.602 12.602v21.941h-11.488c-0.45312 0-0.86328 0.27734-1.0312 0.69922-0.89453 2.2422-1.4609 4.5664-1.7305 6.9453-2.4297 4.8789-9.0547 21.156 2.4023 34.574 0.77344 0.91406 1.9102 1.4375 3.1133 1.4375zm18 9.8672h-13.879l0.67969-3.4805h2.7461c0.61328 0 1.1094-0.49609 1.1094-1.1094l-0.003906-14.34c2.8516 1.5195 6.0039 2.543 9.3477 2.9531zm19.875-3.4805 0.67969 3.4805h-13.883v-15.977c3.3398-0.41406 6.4961-1.4336 9.3477-2.9531v14.34c0 0.61328 0.49609 1.1094 1.1094 1.1094zm10.355-36.461c2.25 6.7617 3.8984 17.793-4.1289 27.195-0.64453 0.75391-1.8828 0.85156-2.6406 0.20703-0.37891-0.32422-0.60938-0.77734-0.64844-1.2773-0.039062-0.5 0.11719-0.98047 0.44141-1.3633 4.0078-4.6914 5.6484-10.383 4.9062-16.906 1.0625-2.4531 1.7773-5.0938 2.0703-7.8555zm0.47266-24.969c-0.56641 0-1.2539-0.65234-1.8164-1.8164 1.3594-0.007812 2.6406-0.13281 3.8086-0.35937-0.60156 1.4336-1.3789 2.1758-1.9922 2.1758zm0-14.43c0.61328 0 1.3906 0.74609 1.9922 2.1719-1.1719-0.22656-2.4492-0.35156-3.8086-0.35938 0.5625-1.1602 1.25-1.8125 1.8164-1.8125zm-2.5664 4.0547c0.21484-0.007813 0.42578-0.023438 0.64453-0.023438 5.0938 0 8.3438 1.8828 8.3438 3.1797s-3.25 3.1836-8.3438 3.1836c-0.21875 0-0.42969-0.015624-0.64453-0.023437-0.19922-0.92188-0.32422-1.9805-0.32422-3.1562s0.125-2.2344 0.32422-3.1602zm-14.484-4.0547c0.050782 0.003907 0.10156 0.003907 0.15625 0h13.531c-1.082 1.7031-1.75 4.2578-1.75 7.2148s0.66797 5.5117 1.75 7.2148h-24.652c-1.1797 0-2.8945-2.8125-2.8945-7.2148 0-4.4062 1.7148-7.2148 2.8945-7.2148zm-20.695 3.875c0-5.7227 4.6562-10.379 10.379-10.379 3.3281 0 6.4375 1.6406 8.3711 4.2812h-9.0195c-2.9141 0-5.1133 4.0586-5.1133 9.4375s2.1992 9.4375 5.1133 9.4375h11.027v9.1641h-20.758zm-12.945 24.164h46.652c0.99219 2.7266 1.4961 5.5781 1.4961 8.4922 0 13.688-11.137 24.824-24.824 24.824s-24.824-11.137-24.824-24.824c0-2.9141 0.50391-5.7656 1.5-8.4922zm-3.5664 11.359c0.29297 2.7656 1.0039 5.4023 2.0703 7.8594-0.74219 6.5234 0.90234 12.215 4.9062 16.906 0.32422 0.37891 0.48047 0.86328 0.44141 1.3633-0.039063 0.5-0.26953 0.95312-0.64844 1.2773-0.75781 0.64844-1.9961 0.54688-2.6406-0.20703-8.0312-9.4102-6.3828-20.441-4.1289-27.199z"/>
 <path d="m44.82 47.523h5.2969c0.61328 0 1.1094-0.49609 1.1094-1.1094 0-0.61328-0.49609-1.1094-1.1094-1.1094h-5.2969c-0.61328 0-1.1094 0.49609-1.1094 1.1094-0.003907 0.61328 0.49609 1.1094 1.1094 1.1094z"/>
 <path d="m44.82 52.824h5.2969c0.61328 0 1.1094-0.49609 1.1094-1.1094 0-0.61328-0.49609-1.1094-1.1094-1.1094h-5.2969c-0.61328 0-1.1094 0.49609-1.1094 1.1094-0.003907 0.60938 0.49609 1.1094 1.1094 1.1094z"/>
 <path d="m30.34 47.523h5.3008c0.61328 0 1.1094-0.49609 1.1094-1.1094 0-0.61328-0.49609-1.1094-1.1094-1.1094h-5.3008c-0.61328 0-1.1094 0.49609-1.1094 1.1094 0 0.61328 0.49609 1.1094 1.1094 1.1094z"/>
 <path d="m35.641 52.824c0.61328 0 1.1094-0.49609 1.1094-1.1094 0-0.61328-0.49609-1.1094-1.1094-1.1094h-5.3008c-0.61328 0-1.1094 0.49609-1.1094 1.1094 0 0.61328 0.49609 1.1094 1.1094 1.1094z"/>
 <path d="m59.301 47.523h5.3008c0.61328 0 1.1094-0.49609 1.1094-1.1094 0-0.61328-0.49609-1.1094-1.1094-1.1094h-5.3008c-0.61328 0-1.1094 0.49609-1.1094 1.1094-0.003906 0.61328 0.49219 1.1094 1.1094 1.1094z"/>
 <path d="m59.301 52.824h5.3008c0.61328 0 1.1094-0.49609 1.1094-1.1094 0-0.61328-0.49609-1.1094-1.1094-1.1094h-5.3008c-0.61328 0-1.1094 0.49609-1.1094 1.1094-0.003906 0.60938 0.49219 1.1094 1.1094 1.1094z"/>
</svg>